<?xml version="1.0" standalone="no"?>
<!DOCTYPE svg PUBLIC "-//W3C//DTD SVG 20010904//EN"
 "http://www.w3.org/TR/2001/REC-SVG-20010904/DTD/svg10.dtd">
<svg version="1.0" xmlns="http://www.w3.org/2000/svg"
 width="42.000000pt" height="42.000000pt" viewBox="0 0 42.000000 42.000000"
 preserveAspectRatio="xMidYMid meet">

<g transform="translate(0.000000,42.000000) scale(0.100000,-0.100000)"
fill="#000000" stroke="none">
<path d="M192 284 c10 -10 20 -16 22 -13 3 3 -5 11 -17 18 -21 13 -21 12 -5
-5z"/>
<path d="M180 259 c0 -6 -8 -8 -19 -4 -10 3 -24 -1 -31 -10 -16 -19 -3 -20 52
-3 26 8 35 14 26 20 -18 11 -28 10 -28 -3z"/>
<path d="M235 260 c-3 -5 0 -10 7 -10 9 0 9 -3 -2 -11 -12 -7 -8 -9 15 -7 39
4 49 38 11 38 -14 0 -28 -4 -31 -10z"/>
<path d="M40 209 c0 -6 9 -9 20 -6 11 3 18 1 14 -4 -3 -5 -15 -9 -26 -9 -21 0
-21 0 2 -25 l23 -25 -29 -1 -29 0 25 -11 c43 -17 258 -21 320 -5 53 14 54 15
18 16 -34 1 -38 4 -38 26 0 18 -5 25 -19 25 -11 0 -22 -4 -25 -8 -3 -5 -30
-10 -61 -11 -48 -2 -59 1 -75 21 l-20 23 -19 -22 c-11 -13 -27 -23 -38 -23
-10 0 -14 4 -8 8 6 4 15 14 22 22 9 13 6 15 -23 17 -20 2 -34 -2 -34 -8z m104
-45 c3 -8 2 -12 -4 -9 -6 3 -10 10 -10 16 0 14 7 11 14 -7z"/>
</g>
</svg>
